<svg width="32" height="32" fill="none" xmlns="http://www.w3.org/2000/svg"><path d="M21.093.765c-3.843-1.079-7.527-.935-9.71-.08-.816.32-.738.68-1.802 1.444-.548.394-3.085 1.499-3.408 1.769-.69.576-1.33 1.208-1.913 1.89-.192.225-.982 1.48-1.162 1.715-1.138 1.494-1.423 2.193-1.959 4.1-1.153 4.106-.847 8.132.743 11.448.417.87 1.144 1.523 1.734 2.284.395.508.604 1.156 1.074 1.607.865.83 4.276 3.489 5.308 3.779 2.182.612 3.47 1.233 5.744 1.276 1.704.032 2.659-.173 4.665-.866 1.294-.447 2.107-.246 5.568-2.27 1.51-.883 2.815-3.69 2.887-4.11.168-.983.98-1.604 1.233-2.095 1.549-3.005 1.558-6.347 1.388-9.061-.109-1.723-1.333-5.165-1.947-6.441-1.006-2.088-2.86-4.347-4.336-5.324-1.265-.837-2.047-.486-4.107-1.065M19.1 9.082c.049-.08.436-.648.62-.803.306-.26.718-.39 1.203-.29.804.163 1.32.832 1.52 1.52.487 1.67.206 3.142-.85 4.303-.31.237-.493.442-.745.559-1.035.48-2.264-.03-2.674-1.104-.631-1.653.154-2.919.926-4.185m-5.457-.841c.172-.448.922-1.432 1.027-1.498.54-.337 1.108-.716 1.902-.354.756.345.953.965.994 1.595.114 1.743-.38 3.271-1.615 4.514-.62.625-1.89.41-2.482-.394-.5-.679-.752-1.391-.492-2.1.217-.59.441-1.177.666-1.763m-6 6.293c-.72-1.304-.335-2.488.027-3.687.01-.034.085-.33.428-.676a2.38 2.38 0 01.858-.54c1.374-.388 2.35.32 2.497 1.808.068.688.21 1.38.38 2.06.277 1.11-.103 2.127-.936 2.36-1.322.37-2.637-.204-3.255-1.325zM19.5 24.657c-.63.644-1.997.896-2.959.458-1.236-.561-1.688-1.307-2.896-1.735-1.11-.393-2.239-.801-3.386-.925-1.808-.196-2.005-2.176-1.507-3.428.25-.627.82-1 1.15-1.165.297-.147.598-.273.913-.332 1.294-.24 2.226-.802 3.06-1.762.907-1.047 1.882-1.231 3.086-.685.964.437 2.086 1.461 1.887 2.747-.18 1.171.134 2.062.934 2.914 1.062 1.133.635 2.975-.282 3.913m5.483-5.421c-1.334 1.465-3.337.92-4.005-.561-1.093-2.424 1.454-4.704 3.595-4.697.652.003.988.43 1.167.968.582 1.746-.016 3.202-.757 4.29z" fill="#A3C46F"/></svg>