<svg width="32" height="32" viewBox="0 0 32 32" fill="none" xmlns="http://www.w3.org/2000/svg">
<path d="M21.0926 0.765433C17.2495 -0.313537 13.5658 -0.16952 11.3833 0.685321C10.5673 1.00484 10.6451 1.36558 9.58099 2.1292C9.03317 2.52281 6.4955 3.62771 6.17274 3.89769C5.48345 4.47363 4.84356 5.10624 4.25976 5.7889C4.06759 6.01349 3.27758 7.2675 3.0979 7.50321C1.96012 8.9971 1.67487 9.69634 1.13909 11.6033C-0.0139763 15.7089 0.291657 19.7345 1.88186 23.051C2.29863 23.9202 3.02566 24.5741 3.61609 25.3345C4.01063 25.8425 4.2204 26.4908 4.69043 26.9418C5.55453 27.7721 8.96555 30.4306 9.99775 30.7205C12.1802 31.3332 13.4671 31.9537 15.7422 31.9968C17.4464 32.0292 18.4008 31.824 20.4068 31.1313C21.7011 30.6844 22.5138 30.8849 25.9749 28.8613C27.4859 27.9782 28.7899 25.171 28.8617 24.7519C29.0302 23.7679 29.8429 23.1473 30.0953 22.656C31.6438 19.6511 31.6531 16.3086 31.4827 13.595C31.3743 11.8723 30.1504 8.42983 29.5359 7.15405C28.5301 5.06557 26.6769 2.80668 25.1997 1.82958C23.9345 0.992804 23.1529 1.34428 21.0926 0.765433M19.1014 9.08184C19.1496 9.00265 19.5367 8.43446 19.7201 8.27933C20.0275 8.01861 20.4392 7.88988 20.9236 7.98851C21.728 8.15198 22.2438 8.82113 22.4443 9.50926C22.9306 11.1787 22.65 12.6508 21.5941 13.8117C21.2848 14.0488 21.1014 14.2535 20.8495 14.3706C19.8136 14.8518 18.5851 14.3415 18.1748 13.2671C17.5436 11.6139 18.3294 10.3484 19.1014 9.08184M13.644 8.24089C13.8163 7.79263 14.5656 6.80859 14.6711 6.7433C15.2106 6.40618 15.7793 6.02692 16.573 6.38904C17.3292 6.73404 17.5255 7.3541 17.5668 7.98388C17.6811 9.72691 17.1861 11.2551 15.952 12.498C15.3324 13.1227 14.0617 12.9082 13.4699 12.1039C12.9698 11.425 12.7179 10.7128 12.9781 10.0034C13.1948 9.41387 13.419 8.82715 13.644 8.24089M7.64347 14.5341C6.92431 13.2296 7.30867 12.0465 7.67079 10.8471C7.68098 10.8128 7.756 10.5174 8.09868 10.171C8.44089 9.82415 8.8822 9.65189 8.95722 9.63059C10.3312 9.24299 11.3064 9.9515 11.4537 11.4389C11.5217 12.1275 11.6648 12.8184 11.8348 13.4996C12.1112 14.6087 11.7306 15.626 10.8984 15.8594C9.57589 16.2299 8.26075 15.6548 7.64347 14.5341ZM19.501 24.657C18.8712 25.3011 17.5042 25.553 16.542 25.1154C15.3065 24.5537 14.8545 23.8077 13.6463 23.3803C12.5363 22.9867 11.4074 22.5787 10.2603 22.4546C8.45154 22.2592 8.2552 20.2786 8.75347 19.0274C9.00307 18.3999 9.57358 18.0262 9.90283 17.8622C10.2001 17.715 10.5011 17.5886 10.8156 17.5298C12.1099 17.2894 13.0425 16.7282 13.8751 15.7682C14.7827 14.7207 15.758 14.5369 16.962 15.0829C17.9261 15.52 19.0477 16.5443 18.8495 17.8298C18.6689 19.001 18.9833 19.8924 19.7826 20.7444C20.8449 21.8767 20.4184 23.7188 19.501 24.657M24.9843 19.2357C23.6497 20.7009 21.6469 20.1568 20.9792 18.6749C19.8863 16.2507 22.4328 13.9715 24.574 13.9784C25.2265 13.9807 25.5623 14.4086 25.7415 14.9458C26.3226 16.6921 25.7248 18.1475 24.9843 19.2357Z" fill="#A3C46F"/>
</svg>
